<svg width="90" height="28" viewBox="0 0 90 28" fill="none" xmlns="http://www.w3.org/2000/svg">
<path d="M25.7996 19.8168C25.6584 19.476 25.5261 19.1178 25.3849 18.812L24.732 17.3527L24.7055 17.3265C22.7643 13.1324 20.6908 8.86828 18.4937 4.6741L18.4055 4.49935C18.1849 4.08867 17.9643 3.6343 17.7349 3.21488C17.4525 2.71682 17.179 2.18381 16.729 1.67702C16.2904 1.14674 15.7383 0.71951 15.1127 0.426151C14.4871 0.132792 13.8036 -0.0193787 13.1114 -0.0193787C12.4192 -0.0193787 11.7356 0.132792 11.11 0.426151C10.4844 0.71951 9.93235 1.14674 9.49372 1.67702C9.07901 2.18381 8.77019 2.71682 8.48783 3.21488C8.26724 3.66925 8.04666 4.11488 7.81724 4.52556L7.72901 4.70032C5.56724 8.89449 3.45842 13.1586 1.51724 17.3527L1.4643 17.4052C1.27019 17.8595 1.04077 18.3314 0.820186 18.8382C0.679009 19.144 0.537833 19.476 0.396656 19.843C0.0155087 20.804 -0.106204 21.8468 0.0435143 22.8685C0.193232 23.8903 0.609213 24.8557 1.25046 25.6698C1.89171 26.4839 2.73609 27.1184 3.70038 27.5109C4.66468 27.9034 5.71561 28.0403 6.7496 27.9081C7.74089 27.7789 8.69543 27.4519 9.55548 26.9469C10.7025 26.3091 11.8055 25.3828 13.0408 24.0459C14.2761 25.3828 15.4055 26.3091 16.5261 26.9557C17.6037 27.582 18.824 27.9277 20.0731 27.9605C21.5196 27.9665 22.9194 27.454 24.0141 26.5176C25.1088 25.5813 25.8245 24.2844 26.029 22.8663C26.2653 21.8473 26.1854 20.7813 25.7996 19.8081V19.8168ZM13.129 21.2673C11.6114 19.345 10.6231 17.5799 10.2878 16.0683C10.1489 15.5081 10.119 14.9269 10.1996 14.3557C10.2614 13.91 10.429 13.5168 10.6584 13.1848C11.1878 12.4246 12.1143 11.9527 13.129 11.9527C13.6109 11.9382 14.0889 12.0423 14.5201 12.2558C14.9513 12.4693 15.3222 12.7855 15.5996 13.176C15.829 13.5256 15.9967 13.91 16.0496 14.3557C16.1378 14.8625 16.1025 15.4479 15.9614 16.0683C15.6261 17.5537 14.6378 19.3362 13.129 21.2673ZM24.3702 22.5605C24.2699 23.2805 23.9809 23.9618 23.532 24.5367C23.083 25.1117 22.4898 25.56 21.8114 25.8372C21.1408 26.1168 20.3996 26.1955 19.6761 26.1168C18.9702 26.0294 18.2643 25.8023 17.5408 25.3828C16.3395 24.6475 15.2592 23.734 14.3378 22.6741C16.1908 20.4023 17.3114 18.3314 17.7349 16.4877C17.9378 15.6139 17.9643 14.8275 17.8761 14.1023C17.7659 13.4148 17.507 12.7591 17.1172 12.1799C16.6722 11.5519 16.0781 11.0418 15.3873 10.6944C14.6965 10.347 13.9301 10.173 13.1555 10.1877C11.5231 10.1877 10.0672 10.9392 9.18489 12.1712C8.78769 12.7489 8.53099 13.4099 8.43489 14.1023C8.32019 14.8362 8.34666 15.6489 8.57607 16.4877C8.9996 18.3314 10.1467 20.4285 11.9731 22.6916C11.0674 23.7717 9.98462 24.6933 8.77018 25.4178C8.03783 25.8372 7.34077 26.0557 6.63489 26.143C5.53714 26.2823 4.42826 25.9868 3.54927 25.3209C2.67028 24.655 2.09223 23.6724 1.94077 22.5867C1.85254 21.8877 1.9143 21.1887 2.19666 20.4023C2.28489 20.1226 2.41724 19.843 2.55842 19.511C2.75254 19.0566 2.98195 18.5848 3.20254 18.1129L3.23783 18.0518C5.14371 13.8838 7.22607 9.62847 9.38783 5.46051L9.47607 5.28575C9.69666 4.86634 9.91724 4.4207 10.1467 4.00129C10.3761 3.55566 10.6231 3.1275 10.9408 2.77799C11.2157 2.45296 11.5593 2.19156 11.9473 2.01221C12.3352 1.83286 12.7582 1.73992 13.1864 1.73992C13.6145 1.73992 14.0375 1.83286 14.4255 2.01221C14.8134 2.19156 15.157 2.45296 15.432 2.77799C15.7408 3.1275 15.9967 3.55566 16.2261 4.00129C16.4467 4.4207 16.6672 4.87507 16.8967 5.28575L16.9849 5.46051C19.1378 9.62847 21.2202 13.8838 23.1614 18.0518L23.1878 18.078C23.4172 18.5324 23.6114 19.0392 23.8319 19.476C23.9731 19.8168 24.1143 20.0877 24.2025 20.376C24.3702 21.1625 24.4584 21.8615 24.3702 22.5605ZM36.6525 21.0751C35.9876 21.0847 35.3291 20.946 34.7258 20.6692C34.1224 20.3923 33.5897 19.9846 33.1672 19.476C32.2179 18.3925 31.714 16.9954 31.7555 15.5615C31.741 14.0963 32.2611 12.6752 33.2202 11.5595C33.6638 11.0445 34.2161 10.6321 34.8381 10.3513C35.4601 10.0705 36.1366 9.92818 36.8202 9.9343C37.4634 9.91686 38.1004 10.0617 38.6715 10.3552C39.2426 10.6487 39.729 11.0811 40.0849 11.612L40.1731 10.2401H42.7496V20.7955H40.1643L40.0761 19.2576C39.7092 19.8244 39.202 20.2889 38.6028 20.607C38.0037 20.9251 37.3323 21.0862 36.6525 21.0751ZM37.3231 18.5586C37.8349 18.5586 38.2849 18.4188 38.7084 18.1654C39.0967 17.8858 39.4143 17.5188 39.6614 17.0731C39.8819 16.6275 39.9967 16.0945 39.9967 15.5003C40.0311 14.9843 39.9296 14.4682 39.7023 14.0026C39.4749 13.537 39.1294 13.1378 38.6996 12.844C38.2866 12.5892 37.8097 12.4541 37.3231 12.4541C36.8365 12.4541 36.3597 12.5892 35.9467 12.844C35.5584 13.1236 35.2408 13.4906 34.9937 13.9362C34.7604 14.4277 34.6456 14.9661 34.6584 15.5091C34.624 16.0251 34.7255 16.5412 34.9528 17.0068C35.1802 17.4724 35.5256 17.8716 35.9555 18.1654C36.3702 18.4188 36.8202 18.5586 37.3231 18.5586ZM47.1614 7.39158C47.1614 7.6974 47.1084 7.97702 46.9672 8.2042C46.8261 8.42265 46.6319 8.62362 46.3761 8.76342C46.1202 8.90323 45.8467 8.95566 45.5643 8.95566C45.2819 8.95566 44.9996 8.90323 44.7437 8.76342C44.5017 8.63 44.2982 8.43749 44.1525 8.2042C44.0159 7.95529 43.9489 7.67474 43.9584 7.39158C43.9584 7.07702 44.0202 6.7974 44.1525 6.57896C44.2937 6.31682 44.4967 6.15954 44.7437 6.01973C44.9996 5.87993 45.2731 5.81876 45.5643 5.81876C45.8452 5.81235 46.1229 5.87823 46.3703 6.00994C46.6178 6.14166 46.8265 6.33471 46.9761 6.57022C47.1045 6.82497 47.1681 7.10693 47.1614 7.39158ZM44.1614 20.7605V10.2226H46.9672V20.778H44.1525L44.1614 20.7605ZM54.4672 12.9838V13.0188C54.3349 12.9576 54.1584 12.9314 54.0261 12.9052C53.8496 12.8702 53.7084 12.8702 53.5408 12.8702C52.7555 12.8702 52.1643 13.0974 51.7761 13.5692C51.3525 14.0498 51.1584 14.7226 51.1584 15.5877V20.7692H48.3437V10.2139H50.929L51.0172 11.8129C51.2996 11.2537 51.6349 10.8343 52.1114 10.5197C52.5853 10.2141 53.1433 10.0615 53.7084 10.0828C53.9114 10.0828 54.1055 10.1003 54.2731 10.1353C54.3614 10.1615 54.4143 10.1615 54.4672 10.1877V12.9838ZM55.5966 20.7605V5.88867H58.4025V11.5683C58.7996 11.0615 59.2496 10.6683 59.8143 10.3625C60.7083 9.92838 61.7239 9.80525 62.6972 10.0129C63.6706 10.2206 64.5448 10.747 65.179 11.5071C66.1305 12.5929 66.6344 13.9935 66.5908 15.4304C66.6053 16.8956 66.0852 18.3167 65.1261 19.4324C64.6824 19.9473 64.1302 20.3598 63.5082 20.6406C62.8862 20.9214 62.2096 21.0637 61.5261 21.0576C60.8829 21.075 60.2458 20.9302 59.6747 20.6367C59.1036 20.3432 58.6172 19.9108 58.2614 19.3799L58.1731 20.7518L55.5966 20.778V20.7605ZM61.0231 18.5586C61.5261 18.5586 61.9761 18.4188 62.3996 18.1654C62.7878 17.8858 63.1055 17.5188 63.3525 17.0731C63.582 16.6275 63.6878 16.0945 63.6878 15.5003C63.6878 14.9149 63.582 14.3819 63.3525 13.9362C63.1208 13.5065 62.7953 13.1334 62.3996 12.844C61.9866 12.5892 61.5097 12.4541 61.0231 12.4541C60.5365 12.4541 60.0597 12.5892 59.6467 12.844C59.2496 13.1236 58.9408 13.4906 58.6849 13.9362C58.4516 14.4277 58.3368 14.9661 58.3496 15.5091C58.3152 16.0251 58.4166 16.5412 58.644 17.0068C58.8713 17.4724 59.2168 17.8716 59.6467 18.1654C60.0614 18.4188 60.5114 18.5586 61.0231 18.5586ZM67.6496 20.7692V10.2139H70.2349L70.3231 11.5858C70.648 11.0599 71.1089 10.6295 71.658 10.3392C72.2072 10.0489 72.8247 9.90907 73.4467 9.9343C74.1579 9.92213 74.857 10.1179 75.4565 10.4971C76.056 10.8763 76.5293 11.4222 76.8172 12.0663C77.1261 12.7304 77.2937 13.5518 77.2937 14.4692V20.7955H74.479V14.8362C74.479 14.1023 74.3114 13.5256 73.9761 13.0974C73.6408 12.678 73.1819 12.4508 72.5996 12.4508C72.1761 12.4508 71.8055 12.5382 71.479 12.7304C71.1702 12.9314 70.9143 13.1848 70.7202 13.543C70.5239 13.9052 70.4266 14.3118 70.4378 14.7226V20.7692H67.6496ZM78.6967 20.7692V5.87993H81.5114V11.5595C81.8926 11.0499 82.3886 10.6353 82.9599 10.3486C83.5312 10.062 84.1621 9.91113 84.8025 9.90808C85.4674 9.89845 86.126 10.0372 86.7293 10.314C87.3327 10.5908 87.8653 10.9986 88.2878 11.5071C89.2325 12.5928 89.7329 13.9891 89.6908 15.4217C89.7061 16.887 89.1859 18.3083 88.2261 19.4236C87.7824 19.9386 87.2302 20.351 86.6082 20.6318C85.9862 20.9126 85.3096 21.055 84.6261 21.0489C83.9829 21.0663 83.3458 20.9215 82.7747 20.628C82.2036 20.3345 81.7172 19.902 81.3614 19.3712L81.282 20.743L78.6967 20.7692ZM84.1496 18.5586C84.6614 18.5586 85.1114 18.4188 85.5261 18.1654C85.9231 17.8858 86.2319 17.5188 86.4878 17.0731C86.7084 16.6275 86.8231 16.0945 86.8231 15.5003C86.8575 14.9843 86.7561 14.4682 86.5287 14.0026C86.3014 13.537 85.9559 13.1378 85.5261 12.844C85.1131 12.5892 84.6362 12.4541 84.1496 12.4541C83.663 12.4541 83.1861 12.5892 82.7731 12.844C82.3849 13.1236 82.0672 13.4906 81.8202 13.9362C81.5739 14.4233 81.4584 14.965 81.4849 15.5091C81.4505 16.0251 81.5519 16.5412 81.7793 17.0068C82.0066 17.4724 82.3521 17.8716 82.7819 18.1654C83.1967 18.4188 83.6202 18.5586 84.1496 18.5586Z" fill="#FF385C"/>
</svg>
