<svg width="90" height="28" viewBox="0 0 90 28" fill="none" xmlns="http://www.w3.org/2000/svg">
<g clip-path="url(#clip0_407_108)">
<path fill-rule="evenodd" clip-rule="evenodd" d="M55.8342 21.8665C50.6041 25.8408 43.0235 27.9612 36.4967 27.9612C27.3451 27.9612 19.1063 24.4716 12.8733 18.6677C12.3836 18.2113 12.8224 17.5893 13.4101 17.9447C20.1366 21.9796 28.4538 24.407 37.0452 24.407C42.8394 24.407 49.2134 23.1711 55.0742 20.6064C55.9595 20.2186 56.7 21.2041 55.8342 21.8665Z" fill="#FF9900"/>
<path fill-rule="evenodd" clip-rule="evenodd" d="M58.0088 19.3018C57.3428 18.4214 53.5897 18.8858 51.9051 19.0918C51.3919 19.1564 51.3135 18.696 51.7758 18.3648C54.765 16.1959 59.6698 16.822 60.2418 17.549C60.8138 18.28 60.0929 23.3488 57.284 25.7681C56.8531 26.1396 56.4417 25.9417 56.6337 25.449C57.2644 23.8254 58.6787 20.1863 58.0088 19.3018Z" fill="#FF9900"/>
<path fill-rule="evenodd" clip-rule="evenodd" d="M52.0225 3.05341V0.945119C52.0225 0.626048 52.2576 0.411987 52.5396 0.411987H61.6952C61.989 0.411987 62.2241 0.630087 62.2241 0.945119V2.7505C62.2201 3.05341 61.9733 3.44922 61.5345 4.07525L56.7903 11.0585C58.5532 11.014 60.4141 11.2846 62.0125 12.2136C62.3729 12.4236 62.4709 12.7306 62.4983 13.0335V15.2831C62.4983 15.5901 62.1692 15.9495 61.8245 15.7638C59.0077 14.2411 55.2663 14.0755 52.1518 15.7799C51.8345 15.9576 51.5015 15.6022 51.5015 15.2952V13.1587C51.5015 12.8154 51.5054 12.2297 51.8384 11.7087L57.3348 3.58251H52.5514C52.2576 3.58251 52.0225 3.36845 52.0225 3.05341Z" fill="black"/>
<path fill-rule="evenodd" clip-rule="evenodd" d="M18.6245 16.208H15.839C15.5726 16.1878 15.3611 15.9819 15.3415 15.7193V0.981477C15.3415 0.686639 15.5805 0.452382 15.8782 0.452382H18.4756C18.7459 0.464491 18.9614 0.678558 18.981 0.945124V2.87167H19.0319C19.7097 1.00975 20.9829 0.141388 22.6988 0.141388C24.4422 0.141388 25.5313 1.00975 26.3148 2.87167C26.9886 1.00975 28.5204 0.141388 30.1619 0.141388C31.3294 0.141388 32.6065 0.638169 33.3862 1.7529C34.2676 2.99283 34.0874 4.79417 34.0874 6.37337L34.0835 15.6749C34.0835 15.9697 33.8445 16.208 33.5468 16.208H30.7653C30.4871 16.1878 30.2638 15.9576 30.2638 15.6749V7.86372C30.2638 7.24173 30.3186 5.6908 30.1854 5.10113C29.9778 4.1116 29.3549 3.83292 28.5479 3.83292C27.874 3.83292 27.1689 4.29739 26.8829 5.04054C26.5969 5.7837 26.6243 7.02767 26.6243 7.86372V15.6749C26.6243 15.9697 26.3853 16.208 26.0876 16.208H23.3061C23.024 16.1878 22.8046 15.9576 22.8046 15.6749L22.8007 7.86372C22.8007 6.2199 23.0632 3.80061 21.0848 3.80061C19.0828 3.80061 19.1612 6.15931 19.1612 7.86372V15.6749C19.1612 15.9697 18.9222 16.208 18.6245 16.208" fill="black"/>
<path fill-rule="evenodd" clip-rule="evenodd" d="M70.1061 0.141388C74.2393 0.141388 76.4762 3.80061 76.4762 8.4534C76.4762 12.9487 74.0042 16.515 70.1061 16.515C66.0474 16.515 63.8379 12.8558 63.8379 8.29588C63.8379 3.70772 66.0749 0.141388 70.1061 0.141388ZM70.1296 3.15035C68.0768 3.15035 67.9475 6.03411 67.9475 7.83141C67.9475 9.63275 67.9201 13.4778 70.1061 13.4778C72.2648 13.4778 72.3666 10.3759 72.3666 8.48571C72.3666 7.24173 72.3157 5.75543 71.9513 4.57607C71.6379 3.5502 71.015 3.15035 70.1296 3.15035Z" fill="black"/>
<path fill-rule="evenodd" clip-rule="evenodd" d="M81.8356 16.208H79.062C78.7838 16.1878 78.5605 15.9576 78.5605 15.6749L78.5566 0.933007C78.5801 0.662403 78.8112 0.452382 79.0933 0.452382H81.675C81.9179 0.464491 82.1177 0.634132 82.1726 0.864348V3.11804H82.2235C83.0031 1.10264 84.0961 0.141388 86.0197 0.141388C87.2694 0.141388 88.4878 0.605859 89.2713 1.8781C90 3.05746 90 5.04054 90 6.46626V15.7436C89.9687 16.002 89.7375 16.208 89.4633 16.208H86.67C86.4154 16.1878 86.2038 15.994 86.1764 15.7436V7.73851C86.1764 6.127 86.3566 3.7683 84.433 3.7683C83.7553 3.7683 83.1324 4.23681 82.8229 4.94765C82.4311 5.84832 82.3802 6.74495 82.3802 7.73851V15.6749C82.3763 15.9697 82.1334 16.208 81.8356 16.208" fill="black"/>
<path fill-rule="evenodd" clip-rule="evenodd" d="M44.7239 9.16825C44.7239 10.287 44.7513 11.22 44.2028 12.2136C43.7601 13.0213 43.055 13.5181 42.2754 13.5181C41.2058 13.5181 40.579 12.678 40.579 11.4381C40.579 8.99054 42.7063 8.54627 44.7239 8.54627V9.16825ZM47.5328 16.1676C47.3487 16.3373 47.0823 16.3494 46.8747 16.2363C45.9501 15.4447 45.7816 15.0771 45.2763 14.3219C43.7484 15.9293 42.6632 16.41 40.6848 16.41C38.3381 16.41 36.5164 14.9196 36.5164 11.9349C36.5164 9.60445 37.7387 8.01717 39.486 7.24171C40.9982 6.5551 43.1098 6.43393 44.7239 6.24411V5.87253C44.7239 5.18996 44.7748 4.38218 44.383 3.79251C44.0461 3.26341 43.3958 3.04531 42.8199 3.04531C41.7582 3.04531 40.8141 3.60672 40.5829 4.76991C40.5359 5.0284 40.3518 5.28285 40.0971 5.29497L37.3979 4.99609C37.1707 4.94359 36.916 4.75376 36.9826 4.3943C37.6016 1.0178 40.5633 0 43.2117 0C44.5672 0 46.338 0.371577 47.4075 1.42976C48.763 2.73432 48.6337 4.47508 48.6337 6.36931V10.8444C48.6337 12.1893 49.1743 12.779 49.6836 13.506C49.8599 13.7645 49.8991 14.0755 49.6719 14.2694C49.1038 14.7581 48.093 15.6668 47.5367 16.1757L47.5328 16.1676" fill="black"/>
<path fill-rule="evenodd" clip-rule="evenodd" d="M8.20746 9.16846C8.20746 10.2872 8.23488 11.2202 7.68642 12.2138C7.24372 13.0216 6.54246 13.5183 5.75893 13.5183C4.68942 13.5183 4.06651 12.6782 4.06651 11.4383C4.06651 8.99075 6.19379 8.54648 8.20746 8.54648V9.16846ZM11.0164 16.1678C10.8323 16.3375 10.5659 16.3496 10.3582 16.2365C9.43368 15.4449 9.26914 15.0773 8.75985 14.3221C7.23197 15.9295 6.1507 16.4102 4.16837 16.4102C1.82562 16.4102 0 14.9198 0 11.9351C0 9.60466 1.22622 8.01738 2.96957 7.24192C4.48178 6.55531 6.59339 6.43414 8.20746 6.24432V5.87274C8.20746 5.19017 8.25839 4.38239 7.87054 3.79272C7.52971 3.26363 6.87938 3.04553 6.3074 3.04553C5.24572 3.04553 4.29765 3.60693 4.06651 4.77013C4.0195 5.02862 3.83537 5.28307 3.58464 5.29518L0.88147 4.9963C0.654246 4.9438 0.403516 4.75397 0.466199 4.39451C1.0891 1.01801 4.04692 0.000213623 6.69525 0.000213623C8.05075 0.000213623 9.82153 0.371791 10.891 1.42998C12.2465 2.73453 12.1173 4.47529 12.1173 6.36952V10.8446C12.1173 12.1895 12.6579 12.7792 13.1672 13.5062C13.3474 13.7647 13.3866 14.0757 13.1594 14.2696C12.5913 14.7583 11.5806 15.667 11.0242 16.1759L11.0164 16.1678" fill="black"/>
</g>
<defs>
<clipPath id="clip0_407_108">
<rect width="90" height="27.9612" fill="white"/>
</clipPath>
</defs>
</svg>
