<svg width="90" height="27" viewBox="0 0 90 27" fill="none" xmlns="http://www.w3.org/2000/svg">
<g clip-path="url(#clip0_407_136)">
<path d="M66.9275 26.1919L74.4331 17.879L66.9275 9.56494H74.8467L78.5641 13.6034L82.1437 9.56494H89.7867L82.3167 17.8447L89.8892 26.1919H81.9375L78.2538 22.1203L74.6048 26.1919H66.9275Z" fill="#FF6600"/>
<path d="M66.9274 5.83779H58.4267V9.56494H66.9274V15.1821H58.4267V20.3379H66.9274V26.1919H52.1787V0H66.9274V5.83779Z" fill="#FF6600"/>
<path d="M45.9571 0V10.719H45.8887C44.5113 9.1584 42.7903 8.61609 40.7935 8.61609C36.7032 8.61609 33.622 11.357 32.5405 14.9808C31.3071 10.9878 28.1262 8.54126 23.4094 8.54126C19.5789 8.54126 16.5541 10.2361 14.9756 12.9978V9.56533H7.05796V5.83856H15.6983V0H0V26.1923H7.05796V15.1821H14.0928C13.8831 15.9909 13.7712 16.8569 13.7712 17.7706C13.7712 23.2343 18.0055 27.0679 23.4094 27.0679C27.9536 27.0679 30.9483 24.965 32.5323 21.131H26.4839C25.6657 22.2827 25.045 22.6248 23.4094 22.6248C21.5127 22.6248 19.8775 20.9937 19.8775 19.0601H32.1934C32.7275 23.3997 36.1569 27.1423 40.8631 27.1423C42.8932 27.1423 44.7519 26.158 45.8887 24.4959H45.9571V26.1915H52.1789V0H45.9571ZM20.0739 15.2604C20.4664 13.5968 21.7753 12.5095 23.4094 12.5095C25.2082 12.5095 26.4506 13.5633 26.7773 15.2604C26.9151 15.2604 20.0739 15.2604 20.0739 15.2604ZM42.1814 22.204C39.888 22.204 38.4629 20.0976 38.4629 17.8983C38.4629 15.5474 39.7025 13.2867 42.1814 13.2867C44.7519 13.2867 45.776 15.5474 45.776 17.8983C45.7756 20.1277 44.6905 22.204 42.1814 22.204Z" fill="#652C8F"/>
</g>
<defs>
<clipPath id="clip0_407_136">
<rect width="90" height="27" fill="white"/>
</clipPath>
</defs>
</svg>
