<svg width="90" height="26" viewBox="0 0 90 26" fill="none" xmlns="http://www.w3.org/2000/svg">
<g clip-path="url(#clip0_407_147)">
<path d="M9.74652 4.25647V11.5098H3.13764V4.25647H0V21.5708H3.13764V14.553H9.74652V21.5708H12.8842V4.25647H9.74652Z" fill="#33475B"/>
<path d="M22.9258 15.9739C22.9258 16.6678 22.6523 17.3333 22.1655 17.824C21.6787 18.3146 21.0185 18.5903 20.3301 18.5903C19.6416 18.5903 18.9814 18.3146 18.4946 17.824C18.0078 17.3333 17.7343 16.6678 17.7343 15.9739V8.55792H14.7581V15.9739C14.7581 17.462 15.3446 18.8891 16.3885 19.9414C17.4325 20.9936 18.8483 21.5847 20.3247 21.5847C21.801 21.5847 23.2169 20.9936 24.2609 19.9414C25.3048 18.8891 25.8913 17.462 25.8913 15.9739V8.55792H22.9258V15.9739Z" fill="#33475B"/>
<path d="M44.9771 9.32185C44.9771 7.80177 45.9748 7.31987 47.0678 7.31987C47.9487 7.31987 49.1124 7.99546 49.8734 8.81516L51.8227 6.50018C50.8496 5.17379 48.8757 4.25647 47.26 4.25647C44.0316 4.25647 41.6965 6.16238 41.6965 9.32185C41.6965 15.1837 48.805 13.3243 48.805 16.6046C48.805 17.6164 47.8303 18.5105 46.7142 18.5105C44.954 18.5105 44.3837 17.6428 43.5751 16.7255L41.4121 18.9924C42.7956 20.7046 44.5021 21.5739 46.5467 21.5739C49.6136 21.5739 52.081 19.6448 52.081 16.6294C52.081 10.1214 44.9725 12.1435 44.9725 9.32185" fill="#33475B"/>
<path d="M88.953 18.8049C87.1944 18.8049 86.6947 18.0379 86.6947 16.8634V11.6647H89.4281V9.03054H86.6947V5.55496L83.677 6.92009V17.5095C83.677 20.2181 85.531 21.5832 88.0737 21.5832C88.4725 21.5905 88.871 21.5583 89.2636 21.4871L89.9999 18.7553C89.6679 18.7786 89.2866 18.8018 88.953 18.8018" fill="#33475B"/>
<path d="M34.2542 8.64471C32.78 8.64471 31.7515 9.07548 30.7569 10.0594V4.36029H27.776V14.9234C27.776 18.8777 30.6124 21.5863 33.7992 21.5863C37.335 21.5863 40.445 18.8297 40.445 15.1171C40.445 11.4509 37.5825 8.64626 34.2542 8.64626V8.64471ZM34.2358 18.5632C33.5669 18.5632 32.913 18.3633 32.3568 17.9887C31.8006 17.6141 31.3671 17.0817 31.1112 16.4588C30.8552 15.8359 30.7882 15.1505 30.9187 14.4892C31.0492 13.8279 31.3713 13.2205 31.8443 12.7438C32.3173 12.267 32.9199 11.9423 33.576 11.8108C34.232 11.6793 34.9121 11.7468 35.5301 12.0048C36.148 12.2628 36.6763 12.6997 37.0479 13.2603C37.4195 13.8209 37.6179 14.48 37.6179 15.1542C37.6179 16.0584 37.2615 16.9254 36.6273 17.5647C35.993 18.204 35.1328 18.5632 34.2358 18.5632Z" fill="#33475B"/>
<path d="M66.6205 14.959C66.6205 11.2402 63.5167 8.48978 59.9748 8.48978C56.788 8.48978 53.9516 11.1983 53.9516 15.1527V25.722H56.9325V20.0151C57.9256 20.9975 58.9555 21.4298 60.4283 21.4298C63.7565 21.4298 66.619 18.6267 66.619 14.959H66.6205ZM63.7981 14.9218C63.7981 15.5961 63.5997 16.2551 63.2281 16.8157C62.8565 17.3763 62.3282 17.8133 61.7103 18.0713C61.0923 18.3293 60.4122 18.3968 59.7562 18.2653C59.1001 18.1337 58.4975 17.8091 58.0245 17.3323C57.5515 16.8556 57.2294 16.2482 57.0989 15.5869C56.9684 14.9256 57.0354 14.2402 57.2914 13.6173C57.5473 12.9944 57.9808 12.462 58.537 12.0874C59.0932 11.7128 59.7471 11.5129 60.416 11.5129C61.313 11.5129 62.1732 11.872 62.8075 12.5113C63.4417 13.1506 63.7981 14.0177 63.7981 14.9218Z" fill="#33475B"/>
<path d="M76.2504 8.34413V5.32566C76.6462 5.13927 76.9812 4.84342 77.2167 4.47254C77.4521 4.10165 77.5781 3.671 77.5802 3.23071V3.16098C77.5802 2.54455 77.3372 1.95336 76.9048 1.51747C76.4723 1.08158 75.8858 0.836703 75.2742 0.836703H75.205C74.5935 0.836703 74.0069 1.08158 73.5745 1.51747C73.142 1.95336 72.8991 2.54455 72.8991 3.16098V3.23071C72.9011 3.671 73.0272 4.10165 73.2626 4.47254C73.498 4.84342 73.8331 5.13927 74.2288 5.32566V8.34413C73.0914 8.51952 72.0201 8.99474 71.1235 9.72165L62.9112 3.2741C62.9693 3.06148 63.0003 2.84227 63.0034 2.62175C63.0044 2.10376 62.8528 1.59713 62.568 1.16594C62.2833 0.734758 61.878 0.39839 61.4035 0.199384C60.9291 0.000377941 60.4067 -0.052325 59.9025 0.0479412C59.3983 0.148207 58.935 0.396938 58.571 0.762672C58.2071 1.12841 57.959 1.59471 57.858 2.10261C57.757 2.61051 57.8078 3.13718 58.0038 3.61601C58.1998 4.09483 58.5324 4.50431 58.9593 4.79263C59.3862 5.08095 59.8884 5.23518 60.4023 5.23579C60.8517 5.23377 61.2927 5.11302 61.6814 4.8856L69.7691 11.2278C69.0424 12.3341 68.6632 13.6355 68.6811 14.9622C68.6989 16.2889 69.1129 17.5794 69.869 18.6655L67.4094 21.1447C67.2104 21.0807 67.0032 21.0467 66.7944 21.044C66.3725 21.0443 65.9602 21.1707 65.6096 21.4071C65.2589 21.6435 64.9856 21.9795 64.8243 22.3724C64.663 22.7653 64.6209 23.1976 64.7033 23.6147C64.7857 24.0317 64.9888 24.4148 65.2872 24.7155C65.5855 25.0162 65.9656 25.221 66.3793 25.3041C66.7931 25.3871 67.222 25.3446 67.6118 25.182C68.0017 25.0194 68.3349 24.744 68.5695 24.3906C68.8041 24.0371 68.9294 23.6215 68.9298 23.1963C68.9271 22.9858 68.8934 22.7769 68.8298 22.5765L71.2634 20.1236C72.0569 20.7391 72.9797 21.1633 73.961 21.3639C74.9423 21.5645 75.9561 21.536 76.9248 21.2806C77.8936 21.0253 78.7914 20.5498 79.5497 19.8907C80.308 19.2316 80.9065 18.4064 81.2995 17.4781C81.6925 16.5498 81.8695 15.5432 81.817 14.5354C81.7644 13.5275 81.4837 12.5452 80.9964 11.6635C80.509 10.7819 79.828 10.0244 79.0053 9.44905C78.1827 8.87369 77.2403 8.49573 76.2504 8.34413ZM75.2419 18.2704C74.5763 18.2697 73.9257 18.0702 73.3725 17.6971C72.8193 17.3239 72.3882 16.7938 72.1338 16.1737C71.8795 15.5537 71.8131 14.8716 71.9433 14.2135C72.0734 13.5555 72.3941 12.9512 72.8649 12.4768C73.3357 12.0025 73.9355 11.6795 74.5884 11.5486C75.2413 11.4178 75.918 11.4849 76.533 11.7416C77.1481 11.9983 77.6738 12.433 78.0438 12.9908C78.4138 13.5486 78.6114 14.2044 78.6117 14.8754C78.6117 15.7754 78.257 16.6385 77.6256 17.2749C76.9942 17.9113 76.1379 18.2688 75.245 18.2688" fill="#FF7A59"/>
</g>
<defs>
<clipPath id="clip0_407_147">
<rect width="90" height="25.7143" fill="white"/>
</clipPath>
</defs>
</svg>
