<svg width="90" height="20" viewBox="0 0 90 20" fill="none" xmlns="http://www.w3.org/2000/svg">
<g clip-path="url(#clip0_407_125)">
<path d="M31.7682 11.0473L31.2318 12.5639H31.1871C31.0977 12.2219 30.9338 11.7015 30.6656 11.077L27.7897 3.8658H24.9735V15.3591H26.8361V8.26686C26.8361 7.82081 26.8361 7.31528 26.8212 6.69081C26.8063 6.37857 26.7765 6.14067 26.7616 5.96225H26.8063C26.8957 6.4083 27 6.73541 27.0745 6.94357L30.5315 15.3294H31.8427L35.2699 6.86923C35.3444 6.67594 35.4189 6.28936 35.4934 5.96225H35.5381C35.4934 6.80975 35.4636 7.56805 35.4487 8.02897V15.3145H37.4305V3.83606H34.7185L31.7682 11.0473ZM39.3079 7.07739H41.245V15.3145H39.3079V7.07739ZM40.2914 3.59816C39.9636 3.59816 39.6954 3.71711 39.4719 3.92527C39.2483 4.13343 39.1291 4.40106 39.1291 4.72817C39.1291 5.04041 39.2483 5.30804 39.4719 5.5162C39.6954 5.72435 39.9636 5.82843 40.2914 5.82843C40.6192 5.82843 40.9023 5.70949 41.1109 5.5162C41.3344 5.30804 41.4536 5.04041 41.4536 4.72817C41.4536 4.41593 41.3344 4.1483 41.1109 3.92527C40.9172 3.71711 40.6341 3.59816 40.2914 3.59816ZM48.1142 7.00304C47.7566 6.9287 47.3841 6.8841 47.0265 6.8841C46.1474 6.8841 45.3427 7.07739 44.6722 7.46397C44.0017 7.85055 43.4652 8.38581 43.1225 9.05489C42.7649 9.73884 42.5861 10.5269 42.5861 11.4338C42.5861 12.2219 42.7649 12.9207 43.1076 13.56C43.4503 14.1845 43.9272 14.69 44.5679 15.032C45.1788 15.374 45.894 15.5524 46.6987 15.5524C47.6225 15.5524 48.4123 15.3591 49.0381 15.0023L49.053 14.9874V13.2032L48.9785 13.2627C48.6954 13.4708 48.3675 13.6493 48.0397 13.7533C47.697 13.8723 47.3841 13.9318 47.1159 13.9318C46.3411 13.9318 45.7301 13.7087 45.298 13.2181C44.851 12.7423 44.6275 12.0881 44.6275 11.2703C44.6275 10.4228 44.851 9.75371 45.3129 9.26305C45.7748 8.77239 46.3858 8.51963 47.1308 8.51963C47.7566 8.51963 48.3974 8.72779 48.9785 9.1441L49.053 9.20358V7.31528L49.0381 7.30041C48.7848 7.19633 48.5017 7.07739 48.1142 7.00304ZM54.5066 6.94357C54.0298 6.94357 53.5828 7.09225 53.1954 7.40449C52.8675 7.67212 52.644 8.0587 52.4503 8.51963H52.4354V7.07739H50.4983V15.3145H52.4354V11.1067C52.4354 10.3931 52.5844 9.79832 52.9123 9.36713C53.2401 8.92108 53.6573 8.69805 54.1639 8.69805C54.3427 8.69805 54.5215 8.74265 54.745 8.77239C54.9536 8.83187 55.1026 8.89134 55.207 8.96568L55.2815 9.02516V7.09225L55.2368 7.07739C55.1026 6.98817 54.8344 6.94357 54.5066 6.94357ZM59.7815 6.89896C58.4255 6.89896 57.3377 7.30041 56.5778 8.08844C55.803 8.87647 55.4305 9.96187 55.4305 11.3298C55.4305 12.6085 55.8179 13.6493 56.5629 14.4075C57.3079 15.151 58.3212 15.5375 59.5877 15.5375C60.9139 15.5375 61.9719 15.1361 62.7318 14.3332C63.5066 13.5303 63.8791 12.4598 63.8791 11.1365C63.8791 9.82805 63.5215 8.78726 62.7914 8.02897C62.0911 7.27068 61.0629 6.89896 59.7815 6.89896ZM61.3311 13.2329C60.9735 13.6939 60.4073 13.9169 59.707 13.9169C59.0066 13.9169 58.4404 13.6939 58.0381 13.2032C57.6358 12.7423 57.4421 12.0732 57.4421 11.2257C57.4421 10.3485 57.6507 9.67937 58.0381 9.20358C58.4404 8.72779 58.9917 8.48989 59.6921 8.48989C60.3775 8.48989 60.9139 8.71292 61.3013 9.17384C61.6887 9.63476 61.8974 10.3038 61.8974 11.1811C61.8675 12.0732 61.7036 12.772 61.3311 13.2329ZM68.2003 10.4971C67.5894 10.2444 67.202 10.0511 67.0232 9.88753C66.8742 9.73884 66.7997 9.53068 66.7997 9.26305C66.7997 9.04002 66.8891 8.817 67.1126 8.66831C67.3361 8.51963 67.5894 8.44528 67.9619 8.44528C68.2897 8.44528 68.6324 8.50476 68.9603 8.59397C69.2881 8.68318 69.5861 8.817 69.8245 8.99542L69.899 9.05489V7.24094L69.8543 7.22607C69.6308 7.13686 69.3328 7.04765 68.9752 6.97331C68.6175 6.91383 68.2897 6.8841 68.0215 6.8841C67.0977 6.8841 66.3377 7.10712 65.7417 7.59778C65.1457 8.0587 64.8626 8.68318 64.8626 9.41174C64.8626 9.79832 64.9222 10.1403 65.0563 10.4228C65.1904 10.7053 65.3841 10.9729 65.6523 11.196C65.9205 11.4041 66.3079 11.642 66.8444 11.865C67.2914 12.0583 67.6341 12.207 67.8427 12.326C68.0513 12.4449 68.1854 12.5787 68.2897 12.6828C68.3642 12.8017 68.4089 12.9504 68.4089 13.1437C68.4089 13.6939 67.9917 13.9615 67.1424 13.9615C66.8146 13.9615 66.4719 13.902 66.0695 13.7682C65.6672 13.6344 65.2947 13.4411 64.9818 13.2181L64.9073 13.1586V15.0469L64.952 15.0618C65.2351 15.1956 65.5778 15.2848 65.995 15.3889C66.4123 15.4632 66.7848 15.5227 67.1126 15.5227C68.1109 15.5227 68.9305 15.2997 69.5116 14.809C70.1076 14.3332 70.4205 13.7236 70.4205 12.9356C70.4205 12.3854 70.2715 11.8948 69.9437 11.5231C69.5116 11.1662 68.9752 10.7945 68.2003 10.4971ZM75.5315 6.89896C74.1755 6.89896 73.0877 7.30041 72.3278 8.08844C71.5679 8.87647 71.1805 9.96187 71.1805 11.3298C71.1805 12.6085 71.5679 13.6493 72.3129 14.4075C73.0579 15.151 74.0712 15.5375 75.3377 15.5375C76.6639 15.5375 77.7219 15.1361 78.4818 14.3332C79.2566 13.5303 79.6291 12.4598 79.6291 11.1365C79.6291 9.82805 79.2715 8.78726 78.5414 8.02897C77.8411 7.27068 76.8129 6.89896 75.5315 6.89896ZM77.0662 13.2329C76.7086 13.6939 76.1424 13.9169 75.4421 13.9169C74.7268 13.9169 74.1755 13.6939 73.7732 13.2032C73.3709 12.7423 73.1772 12.0732 73.1772 11.2257C73.1772 10.3485 73.3858 9.67937 73.7732 9.20358C74.1755 8.72779 74.7268 8.48989 75.4272 8.48989C76.0977 8.48989 76.649 8.71292 77.0364 9.17384C77.4238 9.63476 77.6325 10.3038 77.6325 11.1811C77.6325 12.0732 77.4387 12.772 77.0662 13.2329ZM89.9851 8.66831V7.07739H88.0331V4.63896L87.9735 4.65382L86.1258 5.20396L86.0811 5.21883V7.07739H83.1606V6.03659C83.1606 5.5608 83.2798 5.18909 83.4884 4.95119C83.697 4.7133 84.0099 4.59435 84.3974 4.59435C84.6656 4.59435 84.9487 4.65382 85.2616 4.78764L85.3361 4.83225V3.15211L85.2914 3.13724C85.0232 3.04803 84.6656 2.98856 84.2036 2.98856C83.6225 2.98856 83.1159 3.12237 82.654 3.3454C82.1921 3.59816 81.8493 3.94014 81.596 4.40106C81.3427 4.84711 81.2086 5.35264 81.2086 5.93251V7.07739H79.8527V8.65344H81.2086V15.3145H83.1606V8.66831H86.0811V12.9058C86.0811 14.6454 86.9007 15.5227 88.5397 15.5227C88.8079 15.5227 89.0911 15.4781 89.3593 15.4335C89.6424 15.374 89.851 15.2997 89.9702 15.2402L89.9851 15.2253V13.6344L89.9106 13.6939C89.7914 13.7682 89.6871 13.8277 89.5083 13.8723C89.3593 13.9169 89.2252 13.9318 89.1209 13.9318C88.7334 13.9318 88.4652 13.8425 88.2715 13.6195C88.0927 13.4114 88.0033 13.0694 88.0033 12.5639V8.66831H89.9851Z" fill="#737373"/>
<path d="M0 0H9.13411V9.11437H0V0Z" fill="#F25022"/>
<path d="M10.0876 0H19.2218V9.11437H10.0876V0Z" fill="#7FBA00"/>
<path d="M0 10.0659H9.13411V19.1803H0V10.0659Z" fill="#00A4EF"/>
<path d="M10.0876 10.0659H19.2218V19.1803H10.0876V10.0659Z" fill="#FFB900"/>
</g>
<defs>
<clipPath id="clip0_407_125">
<rect width="90" height="19.1803" fill="white"/>
</clipPath>
</defs>
</svg>
