<svg width="24" height="24" viewBox="0 0 24 24" fill="none" xmlns="http://www.w3.org/2000/svg">
<path d="M10.3911 0.883396C10.827 -0.294466 12.4929 -0.294464 12.9288 0.883397L15.2808 7.23974C15.4179 7.61006 15.7098 7.90203 16.0801 8.03906L22.4365 10.3911C23.6143 10.827 23.6143 12.4929 22.4365 12.9288L16.0801 15.2808C15.7098 15.4178 15.4179 15.7098 15.2808 16.0801L12.9288 22.4365C12.4929 23.6143 10.827 23.6143 10.3911 22.4365L8.03906 16.0801C7.90204 15.7098 7.61007 15.4178 7.23975 15.2808L0.883405 12.9288C-0.294456 12.4929 -0.294455 10.827 0.883407 10.3911L7.23975 8.03905C7.61007 7.90203 7.90204 7.61006 8.03907 7.23974L10.3911 0.883396Z" fill="#F8F9FF"/>
</svg>
