<svg width="24" height="24" viewBox="0 0 24 24" fill="none" xmlns="http://www.w3.org/2000/svg">
<path d="M12.0001 0C5.3735 0 0 5.50847 0 12.3038C0 17.74 3.43839 22.3519 8.2064 23.9789C8.80613 24.0927 9.02631 23.7119 9.02631 23.387C9.02631 23.0936 9.01518 22.1244 9.01001 21.0963C5.67157 21.8405 4.96712 19.6446 4.96712 19.6446C4.42125 18.2224 3.63473 17.8443 3.63473 17.8443C2.54596 17.0806 3.7168 17.0963 3.7168 17.0963C4.92181 17.1831 5.55632 18.3642 5.55632 18.3642C6.6266 20.2452 8.36359 19.7014 9.04836 19.387C9.15607 18.5918 9.46706 18.049 9.81024 17.7418C7.14486 17.4307 4.34295 16.3757 4.34295 11.6612C4.34295 10.3179 4.81172 9.22032 5.57937 8.35868C5.45477 8.04878 5.04402 6.79737 5.69562 5.10261C5.69562 5.10261 6.70331 4.77193 8.9965 6.3638C9.95372 6.09119 10.9803 5.95447 12.0001 5.94979C13.0199 5.95447 14.0473 6.09119 15.0063 6.3638C17.2967 4.77193 18.303 5.10261 18.303 5.10261C18.9562 6.79737 18.5452 8.04878 18.4206 8.35868C19.1901 9.22032 19.6557 10.3179 19.6557 11.6612C19.6557 16.3869 16.8484 17.4274 14.1762 17.732C14.6067 18.1138 14.9902 18.8626 14.9902 20.0105C14.9902 21.6568 14.9763 22.9817 14.9763 23.387C14.9763 23.7144 15.1923 24.098 15.8006 23.9772C20.566 22.3485 24 17.7381 24 12.3038C24 5.50847 18.6273 0 12.0001 0Z" fill="white"/>
<path d="M4.58043 17.5812C4.55405 17.6417 4.46043 17.6598 4.37514 17.6183C4.28827 17.5785 4.23947 17.496 4.26764 17.4353C4.29342 17.373 4.38724 17.3556 4.47392 17.3974C4.56099 17.4371 4.61058 17.5204 4.58043 17.5812Z" fill="white"/>
<path d="M5.06559 18.1315C5.00846 18.1853 4.89679 18.1603 4.82103 18.0752C4.74268 17.9903 4.728 17.8767 4.78592 17.822C4.84483 17.7682 4.95312 17.7934 5.03167 17.8783C5.11002 17.9642 5.12529 18.077 5.06559 18.1315Z" fill="white"/>
<path d="M5.53784 18.8331C5.46445 18.885 5.34445 18.8364 5.27027 18.728C5.19688 18.6197 5.19688 18.4898 5.27186 18.4377C5.34624 18.3857 5.46445 18.4325 5.53963 18.54C5.61282 18.6502 5.61282 18.7801 5.53784 18.8331Z" fill="white"/>
<path d="M6.18485 19.511C6.1192 19.5846 5.97936 19.5648 5.87701 19.4644C5.77229 19.3661 5.74313 19.2267 5.80898 19.1531C5.87543 19.0793 6.01606 19.1 6.1192 19.1997C6.22313 19.2977 6.25487 19.4381 6.18485 19.511Z" fill="white"/>
<path d="M7.07741 19.9046C7.04845 20 6.91377 20.0433 6.7781 20.0028C6.64263 19.961 6.55397 19.8493 6.58134 19.7528C6.60951 19.6568 6.74478 19.6116 6.88144 19.655C7.01672 19.6966 7.10558 19.8075 7.07741 19.9046Z" fill="white"/>
<path d="M8.05764 19.9776C8.06101 20.0781 7.94597 20.1614 7.80356 20.1632C7.66035 20.1664 7.54452 20.0851 7.54293 19.9863C7.54293 19.8848 7.65539 19.8023 7.7986 19.7999C7.94101 19.797 8.05764 19.8777 8.05764 19.9776Z" fill="white"/>
<path d="M8.96985 19.8196C8.98691 19.9177 8.88793 20.0183 8.74651 20.0452C8.60747 20.071 8.47874 20.0105 8.46109 19.9132C8.44383 19.8128 8.54459 19.7121 8.68344 19.6861C8.82506 19.6611 8.9518 19.72 8.96985 19.8196Z" fill="white"/>
</svg>
